<?xml version="1.0" encoding="utf-8"?>
<!-- Generator: Adobe Illustrator 26.3.1, SVG Export Plug-In . SVG Version: 6.00 Build 0)  -->
<svg version="1.1" id="Layer_2_00000110464585757868206150000013983059919489303479_"
	 xmlns="http://www.w3.org/2000/svg" xmlns:xlink="http://www.w3.org/1999/xlink" x="0px" y="0px" viewBox="0 0 321.3 28.3"
	 style="enable-background:new 0 0 321.3 28.3;" xml:space="preserve">
<style type="text/css">
	.st0{fill:#EC2328;}
	.st1{fill:#192226;}
</style>
<g id="Layer_2-2">
	<g>
		<g>
			<path class="st0" d="M182.1,18.1h5.2c0,0.2,0,0.4,0,0.6c0,0.2,0,0.4,0,0.5c0,0.2,0,0.4,0,0.6c0,0.2,0,0.4,0,0.6
				c0,3.3-0.9,5.4-2.8,6.4c-1.9,1-4.3,1.4-7.2,1.4h-3.7c-3.9,0-6.5-1-7.8-2.9c-1.2-1.9-1.9-4.7-1.9-8.3c0-0.3,0-0.7,0-1
				c0-0.4,0-0.7,0-1c0-0.2,0-0.3,0-0.5c0-0.2,0-0.3,0-0.5c0-0.5,0-1,0-1.5s0-1,0-1.5c0-4.7,1-7.7,3.1-8.9c2.1-1.3,5.2-1.9,9.4-1.9
				l1.8,0c0.2,0,0.4,0,0.6,0h0.6c1.2,0.1,2.5,0.2,3.6,0.6c1.1,0.3,2.1,1.1,2.8,2.2c0.5,0.7,0.8,1.5,1,2.4s0.2,1.7,0.3,2.5
				c0,0.1,0,0.3,0,0.4c0,0.1,0,0.3,0,0.4c0,0.2,0,0.3,0,0.5c0,0.2,0,0.3,0,0.5l-5.3,0c-0.1-0.2-0.1-0.4-0.1-0.6c0-0.2,0-0.4-0.1-0.7
				V8c0-0.8-0.2-1.5-0.4-2.2s-1.1-1-2.6-1.1c-0.4-0.1-0.8-0.1-1.2-0.1h-2.1c-0.2,0-0.5,0-0.8,0s-0.6,0-0.8,0
				c-0.6,0.1-1.2,0.2-1.8,0.3s-1,0.4-1.4,0.7c-0.3,0.4-0.6,0.8-0.7,1.2c-0.1,0.5-0.2,0.9-0.3,1.4c0,0.2-0.1,0.4-0.1,0.6s0,0.4,0,0.6
				c0,0.4-0.1,0.9-0.1,1.3c0,0.4,0,0.9,0,1.3c0,0.9,0,1.8,0,2.7c0,0.9,0,1.8,0.1,2.7c0,2.8,0.5,4.5,1.4,5.2c0.9,0.6,2.7,1,5.4,1
				c1.6,0,2.9-0.2,4.1-0.5c1.1-0.3,1.7-1.5,1.7-3.3V19c0-0.1,0-0.3,0-0.4L182.1,18.1L182.1,18.1z"/>
			<path class="st0" d="M233.5,18.2c0,2.4-0.5,3.9-1.4,4.5c-0.9,0.6-1.9,0.9-4.5,0.9c-2.8,0-3.8-0.3-4.7-1c-0.9-0.7-1.4-2.5-1.4-5.4
				l0-14.8V1.1c0-0.2,0-0.4,0-0.6h-5.4v14.8c0,0.3,0,0.6,0,0.9v1c0,4.6,1,7.6,3,8.9s4.3,2,8.5,2c0.9,0,1,0,1.9,0s1.8-0.1,2.8-0.2
				c2.9-0.3,4.7-1.4,5.4-3.2c0.7-1.8,1.1-3.9,1.1-6.4L233.5,18.2L233.5,18.2z"/>
			<path class="st0" d="M258.5,18.2c0,2.4-0.5,3.9-1.4,4.5c-1,0.6-1.9,0.9-4.5,0.9c-2.8,0-3.8-0.3-4.7-1c-0.9-0.7-1.4-2.5-1.4-5.4
				l0-14.8V1.1c0-0.2,0-0.4,0-0.6h-5.4v14.8c0,0.3,0,0.6,0,0.9v1c0,4.6,1,7.6,3,8.9s4.3,2,8.5,2c0.9,0,1,0,1.9,0s1.8-0.1,2.8-0.2
				c2.9-0.3,4.7-1.4,5.4-3.2c0.7-1.8,1.1-3.9,1.1-6.4L258.5,18.2L258.5,18.2z"/>
			<path class="st0" d="M213.5,19.8c0-0.2,0-0.4,0-0.6c0-0.2,0-0.4,0-0.5c0-0.2,0-0.4,0-0.6h-5.2v0.5c0,0.1,0,0.3,0,0.4v0.9
				c0,1.9-0.6,3-1.7,3.3s-2.5,0.5-4.1,0.5c-2.6,0-4.4-0.3-5.4-1c-0.9-0.7-1.4-2.4-1.4-5.2c0-0.5,0-1,0-1.5h11.5v-3.9h-11.5
				c0-0.4,0-0.9,0-1.3c0-0.4,0-0.9,0.1-1.3c0-0.2,0-0.4,0-0.6s0-0.4,0.1-0.6c0-0.5,0.1-0.9,0.3-1.4c0.1-0.5,0.4-0.9,0.7-1.2
				c0.3-0.3,0.8-0.6,1.4-0.7s1.2-0.3,1.8-0.3c0.3,0,0.6,0,0.8,0s0.5,0,0.8,0h2.1c0.4,0,0.8,0,1.2,0.1c1.4,0.1,2.3,0.4,2.6,1.1
				c0.3,0.7,0.4,1.4,0.4,2.1v0.3c0,0.2,0.1,0.4,0.1,0.7c0,0.2,0.1,0.4,0.1,0.6l5.3,0c0-0.2,0-0.3,0-0.5c0-0.2,0-0.3,0-0.5
				c0-0.1,0-0.3,0-0.4c0-0.1,0-0.3,0-0.4c0-0.8-0.1-1.7-0.3-2.5c-0.1-0.8-0.5-1.6-1-2.4c-0.7-1.1-1.7-1.8-2.8-2.2
				c-1.2-0.3-2.4-0.5-3.6-0.6H205c-0.2,0-0.4,0-0.6,0l-1.8,0c-4.2,0-7.4,0.6-9.4,1.9s-3.1,4.3-3.1,8.9c0,0.5,0,1,0,1.5
				c0,0.5,0,1,0,1.5c0,0.2,0,0.3,0,0.5c0,0.2,0,0.3,0,0.5c0,0.3,0,0.7,0,1c0,0.4,0,0.7,0,1c0,3.6,0.6,6.4,1.9,8.3s3.8,2.9,7.8,2.9
				h3.7c2.9,0,5.3-0.5,7.2-1.4c1.9-1,2.8-3.1,2.8-6.4C213.5,20.2,213.5,20,213.5,19.8L213.5,19.8z"/>
		</g>
		<g>
			<path class="st1" d="M24.6,0.2h13.5c3.2,0,5.5,0.6,6.9,1.9c1.4,1.2,2.1,3.5,2.1,6.8v1c0,0.4,0,0.7-0.1,1.1
				c-0.1,0.8-0.2,1.6-0.4,2.3c-0.2,0.8-0.7,1.4-1.2,1.9c-0.3,0.3-0.7,0.5-1.1,0.7c-0.4,0.2-0.8,0.3-1.2,0.4c-0.2,0-0.3,0.1-0.5,0.1
				c-0.2,0-0.3,0.1-0.5,0.1v0.1c1.6,0.1,2.8,0.7,3.6,1.6s1.1,2.2,1.1,3.8v6h-5.4v-5l0-0.6c0-1.4-0.4-2.3-1.2-2.8s-1.8-0.8-3-0.8
				h-7.5v9.3h-5.2L24.6,0.2L24.6,0.2z M37.3,14.3c1.6,0,2.8-0.3,3.4-0.9c0.7-0.6,1-1.8,1-3.3c0-1.7-0.2-3-0.6-3.9
				c-0.4-0.8-1.5-1.3-3.5-1.3h-7.9v9.4C29.8,14.3,37.3,14.3,37.3,14.3z"/>
			<path class="st1" d="M55.4,28.1h-5.3V0.2h5.3V28.1z"/>
			<path class="st1" d="M82.9,13.3V14l0.1,4.4c0,2.5-0.3,4.6-1.1,6.4c-0.7,1.8-2.5,2.9-5.4,3.2c-0.9,0.1-1.8,0.1-2.8,0.2
				c-0.9,0-1.8,0-2.8,0c-4.2,0-7.3-0.7-9.3-2s-3-4.3-3-8.9v-1c0-0.3,0-0.6,0-0.9v-4.4c0-0.4,0-0.8,0-1.2c0-1.1,0.2-2.3,0.4-3.4
				c0.2-1.1,0.7-2.2,1.4-3.1c0.8-1.2,1.9-2,3.2-2.4s2.6-0.7,4-0.8c0.4,0,0.8,0,1.2,0h1.2l2.5,0c3.5,0,6.1,0.5,7.7,1.5
				c1.7,1,2.5,3.3,2.6,7.2l-5.3,0c0-1.2-0.2-2.2-0.7-2.9c-0.5-0.7-1.4-1.1-2.7-1.1c-0.5,0-1-0.1-1.5-0.1c-0.5,0-1,0-1.5,0
				C67.7,4.5,65.7,5,65,6c-0.6,1-0.9,3.1-1,6.4v1.4l0,3.6c0,2.9,0.5,4.7,1.4,5.4c0.9,0.7,2.7,1,5.5,1c2.6,0,4.3-0.3,5.3-0.9
				c0.9-0.6,1.4-2.2,1.4-4.8v-0.4c0,0,0-0.1,0-0.2v-0.2h-7v-4L82.9,13.3L82.9,13.3z"/>
			<path class="st1" d="M109.9,13.3V14l0.1,4.4c0,2.5-0.3,4.6-1.1,6.4c-0.7,1.8-2.5,2.9-5.4,3.2c-0.9,0.1-1.8,0.1-2.8,0.2
				c-0.9,0-1.8,0-2.8,0c-4.2,0-7.3-0.7-9.3-2c-2-1.3-3-4.3-3-8.9v-1c0-0.3,0-0.6,0-0.9v-4.4c0-0.4,0-0.8,0-1.2
				c0-1.1,0.2-2.3,0.4-3.4c0.2-1.1,0.7-2.2,1.4-3.1c0.8-1.2,1.9-2,3.2-2.4s2.6-0.7,4-0.8c0.4,0,0.8,0,1.2,0h1.2l2.5,0
				c3.5,0,6.1,0.5,7.8,1.5c1.7,1,2.5,3.3,2.6,7.2l-5.3,0c0-1.2-0.2-2.2-0.7-2.9c-0.5-0.7-1.4-1.1-2.7-1.1c-0.5,0-1-0.1-1.5-0.1
				c-0.5,0-1,0-1.5,0C94.7,4.5,92.6,5,92,6c-0.6,1-0.9,3.1-1,6.4v1.4l0,3.6c0,2.9,0.5,4.7,1.4,5.4c0.9,0.7,2.7,1,5.5,1
				c2.6,0,4.3-0.3,5.3-0.9c0.9-0.6,1.4-2.2,1.4-4.8v-0.4c0,0,0-0.1,0-0.2v-0.2h-7v-4L109.9,13.3L109.9,13.3z"/>
			<path class="st1" d="M139,0.2h13.5c3.2,0,5.5,0.6,6.9,1.9s2.1,3.5,2.1,6.8v1c0,0.4,0,0.7-0.1,1.1c-0.1,0.8-0.2,1.6-0.4,2.3
				s-0.6,1.4-1.2,1.9c-0.3,0.3-0.7,0.5-1.1,0.7c-0.4,0.2-0.8,0.3-1.2,0.4c-0.2,0-0.3,0.1-0.5,0.1s-0.3,0.1-0.5,0.1v0.1
				c1.6,0.1,2.8,0.7,3.6,1.6s1.1,2.2,1.1,3.8v6h-5.4v-5l0-0.6c0-1.4-0.4-2.3-1.2-2.8s-1.8-0.8-3-0.8h-7.5v9.3H139L139,0.2L139,0.2z
				 M151.7,14.3c1.6,0,2.8-0.3,3.4-0.9c0.6-0.6,1-1.8,1-3.3c0-1.7-0.2-3-0.6-3.9c-0.4-0.8-1.6-1.3-3.5-1.3h-7.9v9.4H151.7z"/>
			<path class="st1" d="M21.6,0.5H0V5h9.5c-0.7,1.6-1,3.7-1,6.4v1c0,0.3,0,0.6,0,0.9v14.7h5.4c0-0.2,0-0.4,0-0.6v-1.4l0-14.8
				c0-2.9,0.5-4.7,1.4-5.4c0.7-0.6,1.6-0.9,3.3-1h3L21.6,0.5L21.6,0.5z"/>
			<path class="st1" d="M136.4,19.8c0-0.2,0-0.4,0-0.6c0-0.2,0-0.4,0-0.5s0-0.4,0-0.6h-5.2v0.5c0,0.1,0,0.3,0,0.4v0.9
				c0,1.9-0.6,3-1.7,3.3c-1.2,0.3-2.5,0.5-4.1,0.5c-2.7,0-4.4-0.3-5.3-1c-0.9-0.7-1.4-2.4-1.4-5.2c0-0.5,0-1,0-1.5H130v-3.9h-11.5
				c0-0.4,0-0.9,0-1.3c0-0.4,0-0.9,0.1-1.3c0-0.2,0-0.4,0-0.6c0-0.2,0-0.4,0.1-0.6c0-0.5,0.1-0.9,0.3-1.4c0.2-0.5,0.4-0.9,0.7-1.2
				c0.3-0.3,0.8-0.6,1.4-0.7s1.2-0.3,1.8-0.3c0.3,0,0.6,0,0.8,0s0.5,0,0.8,0h2.1c0.4,0,0.8,0,1.2,0.1c1.5,0.1,2.3,0.4,2.6,1.1
				c0.3,0.7,0.4,1.4,0.4,2.1v0.3c0,0.2,0.1,0.4,0.1,0.7c0,0.2,0.1,0.4,0.1,0.6l5.3,0c0-0.2,0-0.3,0-0.5c0-0.2,0-0.3,0-0.5
				c0-0.1,0-0.3,0-0.4s0-0.3,0-0.4c0-0.8-0.1-1.7-0.3-2.5c-0.1-0.8-0.5-1.6-1-2.4c-0.7-1.1-1.7-1.8-2.8-2.2
				c-1.1-0.3-2.4-0.5-3.6-0.6h-0.6c-0.2,0-0.4,0-0.6,0l-1.8,0c-4.2,0-7.3,0.6-9.4,1.9c-2.1,1.3-3.1,4.3-3.1,8.9c0,0.5,0,1,0,1.5
				c0,0.5,0,1,0,1.5c0,0.2,0,0.3,0,0.5c0,0.2,0,0.3,0,0.5c0,0.3,0,0.7,0,1c0,0.4,0,0.7,0,1c0,3.6,0.6,6.4,1.9,8.3s3.8,2.9,7.8,2.9
				h3.7c2.9,0,5.3-0.5,7.2-1.4c1.9-1,2.8-3.1,2.8-6.4C136.4,20.2,136.4,20,136.4,19.8L136.4,19.8z"/>
		</g>
		<g id="HD">
			<path id="main" class="st1" d="M306.2,0.6l-4.5,1.9c-0.2,0.1-0.3,0.2-0.3,0.4v12.4c0,0.2,0.2,0.3,0.3,0.2l4.7-3.3
				c0.1,0,0.1-0.1,0.1-0.2v-0.3c0-0.2,0.3-0.3,0.4-0.1l6.5,11.1c0.1,0.1,0,0.3-0.2,0.3h-16.1c-0.1,0-0.2-0.1-0.2-0.2V1.1
				c0-0.3-0.3-0.5-0.6-0.4L292,2.5c-0.2,0.1-0.3,0.2-0.3,0.4v8c0,0.1,0,0.1-0.1,0.2L279,20c0,0-0.2-2.2-0.2-4.4
				c0-10.4,1.5-14,1.6-14.3c0-0.3-0.3-0.5-0.6-0.4l-4.3,1.8c-0.2,0.1-0.2,0.2-0.3,0.4c0,0-1.5,4.3-1.5,12.4s1.5,12.6,1.5,12.6
				c0,0.1,0.1,0.2,0.2,0.2h4.7c0.1,0,0.2-0.1,0.2-0.2c-0.3-1.1-0.5-2.3-0.5-2.3l11.6-8.2c0.1-0.1,0.3,0,0.3,0.2V28
				c0,0.1,0.1,0.2,0.2,0.2h25.5c0.1,0,0.1,0,0.2,0l3.5-1.5c0.2-0.1,0.3-0.4,0.2-0.6L306.7,0.8C306.6,0.6,306.4,0.5,306.2,0.6
				L306.2,0.6z"/>
			<path id="accent" class="st0" d="M306.5,18.5v-4.1c0-0.2-0.2-0.3-0.3-0.2l-4.7,3.3c-0.1,0-0.1,0.1-0.1,0.2v4.1
				c0,0.2,0.2,0.3,0.3,0.2l4.7-3.3C306.4,18.6,306.5,18.5,306.5,18.5z"/>
		</g>
	</g>
</g>
</svg>
