<svg xmlns="http://www.w3.org/2000/svg" viewBox="0 0 32 32">
  <defs>
    <style>
      .cls-1 {
        fill: #f0f0e8;
      }

      .cls-2 {
        fill: #ef2b2d;
      }

      .cls-3 {
        fill: #343a40;
      }
    </style>
  </defs>
  <g id="Group_5" data-name="Group 5" transform="translate(-521 -190)">
    <rect id="Rectangle_7" data-name="Rectangle 7" class="cls-1" width="32" height="32" rx="5" transform="translate(521 190)"/>
    <g id="Group_4" data-name="Group 4" transform="translate(50 74.96)">
      <path id="Path_7" data-name="Path 7" class="cls-2" d="M28.04,29.559l.292,1.827-.392.43H26.053l-.421-.459H20.846l-.417.459H18.545l-.395-.43.292-1.827.408-.449h1.586l.8-.88h4l.806.88h1.586Z" transform="translate(464.141 96.707)"/>
      <path id="Path_8" data-name="Path 8" class="cls-2" d="M28.04,56.343l.292-1.823-.392-.43H26.053l-.421.459H20.846l-.417-.459H18.545l-.395.43.292,1.823.408.449h1.586l.8.883h4l.806-.883h1.586Z" transform="translate(464.141 79.552)"/>
      <path id="Path_9" data-name="Path 9" class="cls-2" d="M28.089,42.221H26.1l-.542-.591h-4l-.491.539H19.018l-.408.449V43.8l.408.446h2.042l.491.546h4l.542-.594h1.993l.408-.446V42.667Z" transform="translate(463.829 87.807)"/>
      <path id="Path_17" data-name="Path 17" class="cls-3" d="M5.169,22.081C5.105,24.457,3.3,28.9,3.362,29.3a6.358,6.358,0,0,0,1.4,2.5,2.9,2.9,0,0,1-1.027-.174A11.777,11.777,0,0,1,1.449,29.37,15.452,15.452,0,0,1,.011,25.046c.116-.281,3.123-2.915,3.287-3.809A33.656,33.656,0,0,0,3.59,16.8,33.656,33.656,0,0,0,3.3,12.362C3.134,11.472.123,8.838.011,8.557A15.418,15.418,0,0,1,1.449,4.233,11.688,11.688,0,0,1,3.731,1.977,2.939,2.939,0,0,1,4.759,1.8a6.358,6.358,0,0,0-1.4,2.5C3.3,4.7,5.108,9.146,5.169,11.519c-.225.258-.514.566-.7.823,0,.127-.205,2.3-.205,4.465s.205,4.324.205,4.451C4.656,21.519,4.945,21.827,5.169,22.081Z" transform="translate(475.998 114.24)"/>
      <path id="Path_18" data-name="Path 18" class="cls-3" d="M51.81,22.081c.061,2.376,1.875,6.821,1.81,7.216a6.391,6.391,0,0,1-1.4,2.5,2.9,2.9,0,0,0,1.027-.174A11.687,11.687,0,0,0,55.53,29.37a15.452,15.452,0,0,0,1.438-4.324c-.116-.281-3.123-2.915-3.29-3.809a34.262,34.262,0,0,1-.292-4.438,34.889,34.889,0,0,1,.292-4.438c.164-.894,3.175-3.527,3.29-3.805A15.418,15.418,0,0,0,55.53,4.233a11.688,11.688,0,0,0-2.282-2.256A2.928,2.928,0,0,0,52.221,1.8a6.391,6.391,0,0,1,1.4,2.5c.064.395-1.749,4.843-1.81,7.216.225.258.514.566.7.823,0,.127.205,2.3.205,4.465s-.205,4.324-.205,4.451C52.324,21.519,52.035,21.827,51.81,22.081Z" transform="translate(441.749 114.24)"/>
    </g>
  </g>
</svg>
