<?xml version="1.0" encoding="utf-8"?>
<!-- Generator: Adobe Illustrator 23.0.1, SVG Export Plug-In . SVG Version: 6.00 Build 0)  -->
<svg version="1.1" id="cta" xmlns="http://www.w3.org/2000/svg" xmlns:xlink="http://www.w3.org/1999/xlink" x="0px" y="0px"
	 viewBox="0 0 145 40" style="enable-background:new 0 0 145 40;" xml:space="preserve">
<style type="text/css">
	.st0{fill:#FFFFFF;}
	.st1{enable-background:new    ;}
</style>
<path id="cta-bg_1_" class="st0" d="M125,40H20C9,40,0,31,0,20l0,0C0,9,9,0,20,0h105c11,0,20,9,20,20l0,0C145,31,136,40,125,40z"/>
<path id="cta-txt_1_" class="st1" d="M41,16.2c-0.1-0.6-0.6-1.6-2.1-1.6c-1.1,0-1.8,0.7-1.8,1.4c0,0.6,0.4,1.1,1.2,1.3l1.6,0.3
	c2.1,0.4,3.2,1.7,3.2,3.3c0,1.7-1.5,3.5-4.1,3.5c-3,0-4.3-1.9-4.5-3.6l2-0.5c0.1,1.1,0.9,2.1,2.5,2.1c1.2,0,1.8-0.6,1.8-1.4
	c0-0.7-0.5-1.2-1.4-1.3l-1.6-0.3c-1.8-0.4-3-1.5-3-3.2c0-2,1.8-3.6,4-3.6c2.8,0,3.8,1.7,4.1,2.9L41,16.2z M46.9,24.3h-2.1V12.7h2.1
	v4.4c0.5-0.6,1.4-0.9,2.1-0.9c2,0,2.9,1.4,2.9,3.1v5h-2.1v-4.6c0-0.9-0.4-1.6-1.5-1.6c-0.9,0-1.4,0.7-1.5,1.5V24.3z M61.7,20.3
	c0,2.4-1.8,4.2-4.1,4.2s-4.1-1.8-4.1-4.2c0-2.4,1.8-4.2,4.1-4.2S61.7,17.9,61.7,20.3z M59.6,20.3c0-1.5-1-2.2-2-2.2s-2,0.8-2,2.2
	c0,1.5,1,2.2,2,2.2S59.6,21.8,59.6,20.3z M63.4,27.3V16.4h2.1v1c0.4-0.6,1.2-1.1,2.4-1.1c2.3,0,3.6,1.8,3.6,4.1
	c0,2.4-1.5,4.1-3.7,4.1c-1.1,0-1.9-0.4-2.3-1v3.8H63.4z M67.5,18.1c-1.1,0-2,0.8-2,2.2s0.9,2.2,2,2.2s2-0.8,2-2.2
	C69.4,18.9,68.6,18.1,67.5,18.1z M84.7,24.3l-5.2-8.1v8.1h-2.2V12.9h2.8l4.7,7.5v-7.5H87v11.3H84.7z M97.1,20.3
	c0,2.4-1.8,4.2-4.1,4.2s-4.1-1.8-4.1-4.2c0-2.4,1.8-4.2,4.1-4.2S97.1,17.9,97.1,20.3z M94.9,20.3c0-1.5-1-2.2-2-2.2s-2,0.8-2,2.2
	c0,1.5,1,2.2,2,2.2S94.9,21.8,94.9,20.3z M105.2,16.4l1.7,5.1l1.5-5.1h2.1l-2.5,7.9h-2.1l-1.8-5.4l-1.8,5.4h-2.2l-2.5-7.9h2.2
	l1.5,5.1l1.7-5.1H105.2z"/>
</svg>
