<?xml version="1.0" encoding="utf-8"?>
<!-- Generator: Adobe Illustrator 22.1.0, SVG Export Plug-In . SVG Version: 6.00 Build 0)  -->
<svg version="1.1" id="cta" xmlns="http://www.w3.org/2000/svg" xmlns:xlink="http://www.w3.org/1999/xlink" x="0px" y="0px"
	 viewBox="0 0 145 40" style="enable-background:new 0 0 145 40;" xml:space="preserve">
<style type="text/css">
	.st0{fill:#FFFFFF;}
	.st1{enable-background:new    ;}
</style>
<path id="cta-bg_1_" class="st0" d="M125,40H20C9,40,0,31,0,20l0,0C0,9,9,0,20,0h105c11,0,20,9,20,20l0,0C145,31,136,40,125,40z"/>
<path id="cta-txt_2_" class="st1" d="M38.1,16.2c-0.1-0.6-0.6-1.6-2.1-1.6c-1.1,0-1.8,0.7-1.8,1.4c0,0.6,0.4,1.1,1.2,1.3l1.6,0.3
	c2.1,0.4,3.2,1.7,3.2,3.3c0,1.7-1.5,3.5-4.1,3.5c-3,0-4.3-1.9-4.5-3.6l2-0.5c0.1,1.1,0.9,2.1,2.5,2.1c1.2,0,1.8-0.6,1.8-1.4
	c0-0.7-0.5-1.2-1.4-1.3L35,19.5c-1.8-0.4-3-1.5-3-3.2c0-2,1.8-3.6,4-3.6c2.8,0,3.8,1.7,4.1,2.9L38.1,16.2z M44,24.3h-2.1V12.7H44
	v4.4c0.5-0.6,1.4-0.9,2.1-0.9c2,0,2.9,1.4,2.9,3.1v5h-2.1v-4.6c0-0.9-0.4-1.6-1.5-1.6c-0.9,0-1.4,0.7-1.5,1.5V24.3z M58.9,20.3
	c0,2.4-1.8,4.2-4.1,4.2s-4.1-1.8-4.1-4.2c0-2.4,1.8-4.2,4.1-4.2S58.9,17.9,58.9,20.3z M56.7,20.3c0-1.5-1-2.2-2-2.2s-2,0.8-2,2.2
	c0,1.5,1,2.2,2,2.2S56.7,21.8,56.7,20.3z M60.5,27.3V16.4h2.1v1c0.4-0.6,1.2-1.1,2.4-1.1c2.3,0,3.6,1.8,3.6,4.1
	c0,2.4-1.5,4.1-3.7,4.1c-1.1,0-1.9-0.4-2.3-1v3.8H60.5z M64.6,18.1c-1.1,0-2,0.8-2,2.2s0.9,2.2,2,2.2s2-0.8,2-2.2
	C66.6,18.9,65.7,18.1,64.6,18.1z M79.2,15v9.3H77V15h-3.6v-2.1h9.4V15H79.2z M90.3,20.3c0,2.4-1.8,4.2-4.1,4.2
	c-2.4,0-4.1-1.8-4.1-4.2c0-2.4,1.8-4.2,4.1-4.2C88.6,16.2,90.3,17.9,90.3,20.3z M88.2,20.3c0-1.5-1-2.2-2-2.2c-1,0-2,0.8-2,2.2
	c0,1.5,1,2.2,2,2.2C87.3,22.6,88.2,21.8,88.2,20.3z M97.1,23.4c-0.4,0.7-1.3,1.1-2.2,1.1c-1.9,0-3-1.4-3-3.1v-5H94v4.5
	c0,0.9,0.4,1.6,1.4,1.6c0.9,0,1.5-0.6,1.5-1.6v-4.6h2.1v6.5c0,0.6,0,1.2,0.1,1.4h-2C97.1,24.1,97.1,23.7,97.1,23.4z M106.2,18.5
	c-0.2,0-0.4-0.1-0.6-0.1c-1.1,0-2,0.5-2,2.2v3.6h-2.1v-7.9h2.1v1.2c0.5-1,1.6-1.2,2.2-1.2c0.2,0,0.3,0,0.5,0V18.5z M108.9,21.7
	c0,0.6,0.5,1.2,1.4,1.2c0.7,0,1-0.4,1-0.8c0-0.4-0.2-0.6-0.8-0.8l-1-0.2c-1.5-0.3-2.2-1.2-2.2-2.4c0-1.4,1.2-2.6,2.9-2.6
	c2.2,0,3,1.4,3.1,2.3l-1.8,0.4c-0.1-0.5-0.4-1.1-1.3-1.1c-0.6,0-1,0.3-1,0.8c0,0.4,0.3,0.6,0.7,0.7l1.1,0.2c1.6,0.3,2.3,1.3,2.3,2.4
	c0,1.3-1,2.6-3.1,2.6c-2.4,0-3.2-1.5-3.3-2.4L108.9,21.7z"/>
</svg>
