<svg class="svg_dribbble_lht" viewBox="0 0 45 45" xmlns="http://www.w3.org/2000/svg"><g transform="translate(-1382 -392)"><path id="btn-base" class="cls-2" style="fill:rgb(255,255,255,0)" d="M7,0H38a7,7,0,0,1,7,7V38a7,7,0,0,1-7,7H7a7,7,0,0,1-7-7V7A7,7,0,0,1,7,0Z" transform="translate(1382 392)"/><path id="icn_dribbble" class="cls-1" style="fill:#FFF" d="M20,0A20,20,0,1,0,40,20,19.995,19.995,0,0,0,20,0Zm0,4.485a15.468,15.468,0,0,1,9.463,3.243,18.873,18.873,0,0,1-7.807,5.757A71.782,71.782,0,0,0,16.2,4.978,15.075,15.075,0,0,1,20,4.485ZM13,6.171a71.118,71.118,0,0,1,5.54,8.418A49.7,49.7,0,0,1,4.948,16.323,15.493,15.493,0,0,1,13,6.171ZM4.485,20c0-.138.02-.266.02-.394a52.516,52.516,0,0,0,15.574-2.07c.365.739.71,1.488,1.045,2.238A24.149,24.149,0,0,0,8.073,29.916,15.468,15.468,0,0,1,4.485,20ZM20,35.515a15.394,15.394,0,0,1-9.522-3.292c3.085-4.84,7.018-7.984,11.888-9.433a61.669,61.669,0,0,1,3.2,11.671A15.412,15.412,0,0,1,20,35.515Zm8.605-2.622A64.915,64.915,0,0,0,25.6,22.1a31.32,31.32,0,0,1,9.7.306A15.465,15.465,0,0,1,28.605,32.893ZM24.357,19c-.384-.877-.779-1.764-1.2-2.632a22.171,22.171,0,0,0,8.684-6.387,15.477,15.477,0,0,1,3.637,9.128A33.788,33.788,0,0,0,24.357,19Z" transform="translate(1385 395)"/></g></svg>