<svg id="tLoader" xmlns="http://www.w3.org/2000/svg" viewBox="0 0 100 100"><defs><style>.cls-1{fill:#ec2328;}.cls-1,.cls-2,.cls-3{stroke-width:0px;}.cls-2,.cls-3{fill:#fff;}.cls-3{opacity:0;}</style></defs><g id="Layer_9"><g id="logos"><g id="tc-logo-loader"><circle id="logo-bground" class="cls-3" cx="50" cy="50" r="50"/><g id="logo"><path id="logo-core" class="cls-2" d="m61.4,27.56l-5.95,2.48c-.21.09-.35.29-.35.52v16.3c0,.23.26.36.44.23l6.19-4.34c.08-.05.12-.14.12-.23v-.4c0-.29.38-.39.52-.14l8.51,14.53c.11.19-.03.42-.24.42h-21.18c-.16,0-.28-.13-.28-.28v-28.43c0-.4-.41-.67-.78-.52l-5.63,2.35c-.21.09-.35.29-.35.52v10.44c0,.09-.04.18-.12.23l-16.57,11.69s-.27-2.88-.29-5.84c-.07-13.7,2.02-18.31,2.06-18.79.03-.38-.41-.67-.78-.52l-5.63,2.35c-.21.09-.26.31-.35.52,0,0-2,5.63-2,16.3s2,16.54,2,16.54c0,.16.13.28.28.28h6.19c.16,0,.33-.1.28-.28-.4-1.41-.72-3.06-.72-3.06l15.2-10.71c.19-.13.44,0,.44.23v13.47c0,.16.13.28.28.28h33.39c.08,0,.15-.02.22-.05l4.59-1.99c.31-.13.43-.51.26-.8l-19.07-33.06c-.14-.25-.44-.35-.7-.24Z"/><path id="logo-accent" class="cls-1" d="m61.78,50.96v-5.31c0-.23-.26-.36-.44-.23l-6.19,4.34c-.08.05-.12.14-.12.23v5.31c0,.23.26.36.44.23l6.19-4.34c.08-.05.12-.14.12-.23Z"/></g><path id="logo-text" class="cls-2" d="m61.89,76.23h1.24c0,.05,0,.1,0,.15,0,.05,0,.09,0,.13,0,.05,0,.09,0,.14,0,.05,0,.09,0,.14,0,.78-.22,1.28-.67,1.51-.45.23-1.01.34-1.7.34h-.88c-.93,0-1.54-.23-1.84-.69-.3-.46-.45-1.11-.45-1.96,0-.08,0-.16,0-.24,0-.08,0-.16,0-.24,0-.04,0-.08,0-.12,0-.04,0-.08,0-.12,0-.12,0-.24,0-.36,0-.12,0-.24,0-.36,0-1.11.25-1.81.74-2.12.49-.3,1.24-.46,2.24-.46h.43s.09,0,.13,0h.13c.3.01.58.06.86.14.27.08.5.25.67.51.12.17.2.36.23.56.04.2.06.4.06.6,0,.03,0,.07,0,.1,0,.04,0,.07,0,.1,0,.04,0,.08,0,.12,0,.04,0,.08,0,.12h-1.26s-.02-.1-.02-.15c0-.05,0-.11-.01-.16v-.07c0-.18-.04-.35-.1-.51-.06-.15-.27-.24-.61-.26-.09-.01-.19-.02-.28-.02h-.5c-.06,0-.12,0-.19,0s-.13,0-.2,0c-.14.01-.29.04-.42.07-.14.04-.24.09-.32.17-.08.09-.14.18-.17.29-.04.11-.06.22-.06.33,0,.05-.01.09-.01.14,0,.05,0,.09,0,.14,0,.11-.01.21-.01.31,0,.1,0,.21,0,.31,0,.21,0,.42,0,.64,0,.21,0,.43.01.64,0,.66.12,1.07.34,1.22.22.15.64.23,1.27.23.37,0,.69-.04.96-.12.27-.08.41-.34.41-.79v-.21s0-.07,0-.1v-.1h0Zm12.17.04c0,.57-.12.92-.34,1.06-.22.14-.45.21-1.06.21-.65,0-.9-.08-1.11-.24-.21-.16-.32-.58-.33-1.27v-3.49c0-.06,0-.12,0-.17v-.16s0-.09,0-.14h-1.28v3.5c0,.07-.01.15-.01.22v.23c0,1.09.24,1.8.72,2.11.48.31,1.02.47,2.02.47.22,0,.24,0,.46,0,.22,0,.43-.02.65-.04.69-.08,1.11-.33,1.28-.76.17-.43.25-.93.25-1.52h0s-1.26,0-1.26,0Zm5.93,0c-.01.57-.12.92-.34,1.06-.22.14-.45.21-1.06.21-.65,0-.9-.08-1.11-.24-.21-.16-.33-.58-.33-1.27v-3.49c0-.06,0-.12,0-.17v-.16s0-.09,0-.14h-1.28v3.5c0,.07,0,.15,0,.22v.23c0,1.09.24,1.8.72,2.11.48.31,1.02.47,2.02.47.22,0,.24,0,.46,0,.22,0,.43-.02.65-.04.69-.08,1.11-.33,1.28-.76.17-.43.25-.93.25-1.52h0s-1.26,0-1.26,0Zm-10.66.38s0-.09,0-.14c0-.04,0-.08,0-.13,0-.05,0-.1,0-.15h-1.24v.11s0,.07,0,.1v.21c0,.45-.14.71-.41.79-.27.08-.59.12-.96.12-.63,0-1.05-.08-1.27-.23-.22-.16-.33-.56-.34-1.22,0-.12,0-.24,0-.36h2.72v-.92h-2.73c0-.11,0-.21,0-.31,0-.1,0-.21.01-.31,0-.05,0-.09,0-.14,0-.05,0-.09.01-.14,0-.11.03-.22.06-.33.04-.11.09-.2.17-.29.08-.08.19-.14.32-.17.13-.04.28-.06.42-.07.07,0,.13,0,.2,0s.13,0,.19,0h.5c.1,0,.19,0,.28.02.34.02.55.11.61.26.06.16.1.32.1.51v.07c0,.05.01.11.01.16,0,.05.01.1.02.14h1.26s0-.07,0-.11c0-.04,0-.08,0-.12,0-.03,0-.07,0-.1,0-.04,0-.07,0-.1,0-.2-.03-.4-.06-.6-.04-.2-.11-.39-.23-.56-.17-.26-.39-.44-.67-.51-.27-.08-.56-.13-.86-.14h-.13s-.09,0-.13,0h-.43c-1,0-1.74.16-2.24.46-.49.3-.74,1.01-.74,2.12,0,.12,0,.24,0,.36,0,.12,0,.24,0,.36,0,.04,0,.08,0,.12,0,.04,0,.08,0,.12,0,.08,0,.16,0,.24,0,.08,0,.16,0,.24,0,.85.15,1.51.45,1.96.3.46.91.69,1.84.69h.88c.69,0,1.25-.11,1.7-.34.44-.23.67-.73.67-1.51,0-.05,0-.09,0-.14Zm-44.76-4.65h3.2c.76,0,1.31.15,1.64.44.34.29.5.82.5,1.61v.25c0,.09,0,.17-.02.26-.01.18-.05.37-.1.54-.06.18-.15.33-.29.45-.08.07-.17.12-.26.16-.1.04-.19.07-.29.1-.04,0-.08.01-.11.02-.04,0-.07.02-.11.02v.03c.39.03.67.16.85.38.18.22.27.52.27.91v1.43h-1.28v-1.34c0-.33-.09-.55-.27-.67-.18-.12-.42-.18-.72-.18h-1.78v2.2h-1.23v-6.6Zm3.01,3.33c.39,0,.66-.07.82-.22.16-.15.23-.42.23-.79,0-.41-.04-.71-.13-.91-.09-.2-.37-.3-.84-.3h-1.86v2.23h1.78Zm4.29,3.26h-1.27v-6.6h1.27v6.6Zm6.51-3.5v.18l.02,1.05c0,.59-.08,1.09-.25,1.52-.17.43-.6.68-1.28.76-.22.02-.44.03-.65.04-.22,0-.44,0-.65,0-1,0-1.73-.16-2.21-.47-.48-.31-.72-1.02-.72-2.11v-.23c0-.08,0-.15.01-.22v-1.04c0-.1,0-.19,0-.29,0-.27.04-.54.09-.81.06-.27.16-.51.32-.74.2-.28.45-.48.76-.58.31-.1.62-.16.95-.18.1,0,.2,0,.29,0h.87c.83,0,1.44.11,1.83.34.39.23.6.79.61,1.7h-1.27c0-.3-.06-.53-.17-.69-.12-.16-.33-.25-.64-.27-.12,0-.24-.01-.36-.01-.12,0-.24,0-.36,0-.81,0-1.29.12-1.43.35-.14.23-.22.74-.24,1.53v1.18c.02.69.13,1.11.34,1.27.21.16.65.24,1.3.24.61,0,1.02-.07,1.25-.21.22-.14.34-.52.34-1.14v-.1s0-.03,0-.04v-.04h-1.66v-.95h2.91Zm6.39,0v.18l.02,1.05c0,.59-.08,1.09-.25,1.52-.17.43-.6.68-1.28.76-.22.02-.44.03-.65.04-.22,0-.44,0-.65,0-1,0-1.73-.16-2.21-.47-.48-.31-.72-1.02-.72-2.11v-.23c0-.08,0-.15,0-.22v-1.04c0-.1,0-.19,0-.29,0-.27.04-.54.09-.81.06-.27.16-.51.32-.74.2-.28.45-.48.76-.58.31-.1.62-.16.95-.18.1,0,.2,0,.29,0h.87c.83,0,1.44.11,1.83.34.39.23.59.79.61,1.7h-1.27c0-.3-.06-.53-.17-.69-.12-.16-.33-.25-.64-.27-.12,0-.24-.01-.36-.01-.12,0-.24,0-.36,0-.81,0-1.29.12-1.43.35-.15.23-.22.74-.24,1.53v1.18c.02.69.13,1.11.34,1.27.21.16.65.24,1.3.24.61,0,1.02-.07,1.25-.21.22-.14.34-.52.34-1.14v-.1s-.01-.03-.01-.04v-.04h-1.66v-.95h2.91Zm6.9-3.1h3.2c.76,0,1.31.15,1.64.44.34.29.5.82.5,1.61v.25c0,.09,0,.17-.02.26-.01.18-.05.37-.1.54-.06.18-.15.33-.29.45-.08.07-.17.12-.26.16-.1.04-.19.07-.29.1-.04,0-.08.01-.11.02-.04,0-.07.02-.11.02v.03c.39.03.67.16.85.38.18.22.27.52.27.91v1.43h-1.28v-1.34c0-.33-.09-.55-.27-.67-.18-.12-.42-.18-.72-.18h-1.78v2.2h-1.23v-6.6Zm3.01,3.33c.39,0,.66-.07.82-.22.15-.15.23-.42.23-.79,0-.41-.04-.71-.13-.91-.09-.2-.37-.3-.84-.3h-1.86v2.23h1.78Zm-30.81-3.25h-5.12v1.07h2.24c-.16.37-.24.88-.24,1.51v.23c0,.08,0,.15,0,.22v3.49h1.28s0-.09,0-.14v-3.82c.02-.69.13-1.11.34-1.27.17-.13.37-.21.78-.23h.72v-1.07h0Zm27.18,4.57s0-.09,0-.14c0-.04,0-.08,0-.13,0-.05,0-.1,0-.15h-1.24v.11s0,.07,0,.1v.21c0,.45-.14.71-.41.79-.27.08-.6.12-.96.12-.63,0-1.05-.08-1.27-.23-.22-.16-.33-.56-.34-1.22,0-.12,0-.24,0-.36h2.72v-.92h-2.73c0-.11,0-.21,0-.31,0-.1,0-.21.01-.31,0-.05,0-.09,0-.14,0-.05,0-.09.01-.14,0-.11.03-.22.06-.33.04-.11.09-.2.17-.29.08-.08.19-.14.32-.17.14-.04.28-.06.42-.07.07,0,.13,0,.2,0s.13,0,.19,0h.5c.1,0,.19,0,.28.02.34.02.55.11.61.26.06.16.1.32.1.51v.07c0,.05.01.11.01.16,0,.05.01.1.03.14h1.26s0-.07,0-.11c0-.04,0-.08,0-.12,0-.03,0-.07,0-.1,0-.04,0-.07,0-.1,0-.2-.03-.4-.06-.6-.04-.2-.11-.39-.23-.56-.17-.26-.39-.44-.67-.51-.27-.08-.56-.13-.86-.14h-.13s-.09,0-.13,0h-.43c-1,0-1.74.16-2.24.46-.49.3-.74,1.01-.74,2.12,0,.12,0,.24,0,.36,0,.12,0,.24,0,.36,0,.04,0,.08,0,.12,0,.04,0,.08,0,.12,0,.08,0,.16,0,.24,0,.08,0,.16,0,.24,0,.85.15,1.51.45,1.96.3.46.91.69,1.84.69h.88c.69,0,1.25-.11,1.7-.34.44-.23.67-.73.67-1.51,0-.05,0-.09,0-.14Z"/></g></g></g></svg>