<?xml version="1.0" encoding="utf-8"?>
<!-- Generator: Adobe Illustrator 22.1.0, SVG Export Plug-In . SVG Version: 6.00 Build 0)  -->
<svg version="1.1" id="cta" xmlns="http://www.w3.org/2000/svg" xmlns:xlink="http://www.w3.org/1999/xlink" x="0px" y="0px"
	 viewBox="0 0 210 50" style="enable-background:new 0 0 210 50;" xml:space="preserve">
<style type="text/css">
	.st0{fill:#FFFFFF;}
	.st1{enable-background:new    ;}
</style>
<path id="cta-bg" class="st0" d="M185,50H25C11.2,50,0,38.8,0,25l0,0C0,11.2,11.2,0,25,0h160c13.8,0,25,11.2,25,25l0,0
	C210,38.8,198.8,50,185,50z"/>
<path id="cta-txt_1_" class="st1" d="M62,20.3c-0.1-0.8-0.8-2-2.6-2c-1.3,0-2.2,0.9-2.2,1.8c0,0.8,0.5,1.4,1.5,1.6l2,0.4
	c2.6,0.5,4,2.2,4,4.2c0,2.2-1.8,4.4-5.1,4.4c-3.8,0-5.4-2.4-5.6-4.4l2.6-0.7c0.1,1.4,1.1,2.7,3.1,2.7c1.5,0,2.3-0.7,2.3-1.7
	c0-0.8-0.6-1.5-1.7-1.7l-2-0.4c-2.3-0.5-3.7-1.9-3.7-4.1c0-2.5,2.3-4.4,4.9-4.4c3.4,0,4.8,2.1,5.1,3.7L62,20.3z M69.4,30.3h-2.7
	V15.9h2.7v5.5c0.6-0.8,1.7-1.1,2.7-1.1c2.5,0,3.7,1.7,3.7,3.9v6.2H73v-5.7c0-1.1-0.5-2-1.8-2c-1.1,0-1.8,0.8-1.8,1.9V30.3z M88,25.4
	c0,3-2.2,5.2-5.2,5.2c-2.9,0-5.2-2.2-5.2-5.2c0-3,2.2-5.2,5.2-5.2C85.7,20.2,88,22.4,88,25.4z M85.3,25.4c0-1.9-1.2-2.8-2.5-2.8
	s-2.5,0.9-2.5,2.8c0,1.8,1.2,2.8,2.5,2.8S85.3,27.3,85.3,25.4z M90.1,34.1V20.5h2.6v1.2c0.4-0.8,1.5-1.4,3-1.4
	c2.9,0,4.5,2.2,4.5,5.1c0,3-1.9,5.2-4.6,5.2c-1.4,0-2.4-0.5-2.8-1.2v4.8H90.1z M95.1,22.7c-1.4,0-2.5,1-2.5,2.8
	c0,1.7,1.1,2.8,2.5,2.8s2.4-1,2.4-2.8C97.6,23.7,96.5,22.7,95.1,22.7z M113.4,18.8v11.6h-2.8V18.8h-4.5v-2.6h11.7v2.6H113.4z
	 M127.3,25.4c0,3-2.2,5.2-5.2,5.2s-5.2-2.2-5.2-5.2c0-3,2.2-5.2,5.2-5.2S127.3,22.4,127.3,25.4z M124.6,25.4c0-1.9-1.2-2.8-2.5-2.8
	c-1.3,0-2.5,0.9-2.5,2.8c0,1.8,1.2,2.8,2.5,2.8C123.4,28.2,124.6,27.3,124.6,25.4z M135.7,29.3c-0.5,0.9-1.7,1.3-2.7,1.3
	c-2.4,0-3.7-1.7-3.7-3.9v-6.2h2.7v5.7c0,1.1,0.6,2,1.8,2c1.2,0,1.9-0.8,1.9-1.9v-5.7h2.7v8.1c0,0.8,0.1,1.4,0.1,1.8h-2.5
	C135.8,30.1,135.7,29.7,135.7,29.3z M147.1,23.1c-0.3-0.1-0.6-0.1-0.8-0.1c-1.4,0-2.5,0.7-2.5,2.8v4.5h-2.7v-9.8h2.6V22
	c0.6-1.3,2-1.5,2.8-1.5c0.2,0,0.4,0,0.6,0V23.1z M150.5,27.1c0.1,0.8,0.6,1.5,1.8,1.5c0.9,0,1.3-0.5,1.3-1c0-0.4-0.3-0.8-1.1-1
	l-1.3-0.3c-1.9-0.4-2.8-1.6-2.8-2.9c0-1.8,1.6-3.2,3.7-3.2c2.8,0,3.7,1.8,3.9,2.8l-2.2,0.5c-0.1-0.6-0.5-1.3-1.6-1.3
	c-0.7,0-1.3,0.4-1.3,1c0,0.5,0.4,0.8,0.9,0.9l1.4,0.3c1.9,0.4,2.9,1.6,2.9,3c0,1.6-1.2,3.2-3.8,3.2c-3,0-4-1.9-4.1-3L150.5,27.1z"/>
</svg>
