<svg xmlns="http://www.w3.org/2000/svg" viewBox="0 0 30 46.646">
  <defs>
    <style>
      .cls-1 {
        fill: none;
      }

      .cls-2 {
        fill: #e85858;
      }

      .cls-3, .cls-4 {
        stroke: none;
      }

      .cls-4 {
        fill: #fff;
      }
    </style>
  </defs>
  <g id="Group_14" data-name="Group 14" transform="translate(-1581 -272)">
    <g id="Path_39" data-name="Path 39" class="cls-1" transform="translate(1581 272)">
      <path class="cls-3" d="M15,0A15,15,0,0,1,30,15V31.646a15,15,0,0,1-30,0V15A15,15,0,0,1,15,0Z"/>
      <path class="cls-4" d="M 15 2.999992370605469 C 11.79467964172363 2.999992370605469 8.781219482421875 4.248214721679688 6.514720916748047 6.514713287353516 C 4.248220443725586 8.781215667724609 3 11.79468536376953 3 15.00000381469727 L 3 31.64600372314453 C 3 34.85132598876953 4.248220443725586 37.86478424072266 6.514720916748047 40.13128280639648 C 8.781219482421875 42.39778518676758 11.79467964172363 43.64600372314453 15 43.64600372314453 C 18.20532035827637 43.64600372314453 21.21878051757813 42.39778518676758 23.48527908325195 40.13128280639648 C 25.75177955627441 37.86478424072266 27 34.85132598876953 27 31.64600372314453 L 27 15.00000381469727 C 27 11.79468536376953 25.75177955627441 8.781215667724609 23.48527908325195 6.514713287353516 C 21.21878051757813 4.248214721679688 18.20532035827637 2.999992370605469 15 2.999992370605469 M 15 -7.62939453125e-06 C 23.28426933288574 -7.62939453125e-06 30 6.715724945068359 30 15.00000381469727 L 30 31.64600372314453 C 30 39.93027496337891 23.28426933288574 46.64600372314453 15 46.64600372314453 C 6.715730667114258 46.64600372314453 0 39.93027496337891 0 31.64600372314453 L 0 15.00000381469727 C 0 6.715724945068359 6.715730667114258 -7.62939453125e-06 15 -7.62939453125e-06 Z"/>
    </g>
    <path id="Path_38" data-name="Path 38" class="cls-2" d="M1.932,0A1.932,1.932,0,0,1,3.864,1.932V12.068a1.932,1.932,0,0,1-3.864,0V1.932A1.932,1.932,0,0,1,1.932,0Z" transform="translate(1594 282.322)"/>
  </g>
</svg>
