<?xml version="1.0" encoding="utf-8"?>
<!-- Generator: Adobe Illustrator 22.1.0, SVG Export Plug-In . SVG Version: 6.00 Build 0)  -->
<svg version="1.1" id="cta" xmlns="http://www.w3.org/2000/svg" xmlns:xlink="http://www.w3.org/1999/xlink" x="0px" y="0px"
	 viewBox="0 0 210 50" style="enable-background:new 0 0 210 50;" xml:space="preserve">
<style type="text/css">
	.st0{fill:#FFFFFF;}
	.st1{enable-background:new    ;}
</style>
<path id="cta-bg" class="st0" d="M185,50H25C11.2,50,0,38.8,0,25l0,0C0,11.2,11.2,0,25,0h160c13.8,0,25,11.2,25,25l0,0
	C210,38.8,198.8,50,185,50z"/>
<path id="cta-txt" class="st1" d="M65.6,20.3c-0.1-0.8-0.8-2-2.6-2c-1.3,0-2.2,0.9-2.2,1.8c0,0.8,0.5,1.4,1.5,1.6l2,0.4
	c2.6,0.5,4,2.2,4,4.2c0,2.2-1.8,4.4-5.1,4.4c-3.8,0-5.4-2.4-5.6-4.4l2.6-0.7c0.1,1.4,1.1,2.7,3.1,2.7c1.5,0,2.3-0.7,2.3-1.7
	c0-0.8-0.6-1.5-1.7-1.7l-2-0.4c-2.3-0.5-3.7-1.9-3.7-4.1c0-2.5,2.3-4.4,4.9-4.4c3.4,0,4.8,2.1,5.1,3.7L65.6,20.3z M73,30.3h-2.7
	V15.9H73v5.5c0.6-0.8,1.7-1.1,2.7-1.1c2.5,0,3.7,1.7,3.7,3.9v6.2h-2.7v-5.7c0-1.1-0.5-2-1.8-2c-1.1,0-1.8,0.8-1.8,1.9V30.3z
	 M91.6,25.4c0,3-2.2,5.2-5.2,5.2c-2.9,0-5.2-2.2-5.2-5.2c0-3,2.2-5.2,5.2-5.2C89.3,20.2,91.6,22.4,91.6,25.4z M88.9,25.4
	c0-1.9-1.2-2.8-2.5-2.8c-1.3,0-2.5,0.9-2.5,2.8c0,1.8,1.2,2.8,2.5,2.8C87.7,28.2,88.9,27.3,88.9,25.4z M93.7,34.1V20.5h2.6v1.2
	c0.4-0.8,1.5-1.4,3-1.4c2.9,0,4.5,2.2,4.5,5.1c0,3-1.9,5.2-4.6,5.2c-1.4,0-2.4-0.5-2.8-1.2v4.8H93.7z M98.7,22.7
	c-1.4,0-2.5,1-2.5,2.8s1.1,2.8,2.5,2.8s2.4-1,2.4-2.8C101.2,23.7,100.1,22.7,98.7,22.7z M120.2,30.3l-6.4-10.1v10.1H111V16.2h3.4
	l5.9,9.4v-9.4h2.8v14.2H120.2z M135.7,25.4c0,3-2.2,5.2-5.2,5.2c-2.9,0-5.2-2.2-5.2-5.2c0-3,2.2-5.2,5.2-5.2
	C133.5,20.2,135.7,22.4,135.7,25.4z M133,25.4c0-1.9-1.2-2.8-2.5-2.8c-1.3,0-2.5,0.9-2.5,2.8c0,1.8,1.2,2.8,2.5,2.8
	C131.8,28.2,133,27.3,133,25.4z M145.9,20.5l2.1,6.3l1.8-6.3h2.6l-3.1,9.8h-2.7l-2.3-6.7l-2.3,6.7h-2.7l-3.1-9.8h2.8l1.8,6.3
	l2.1-6.3H145.9z"/>
</svg>
